<svg width="120" height="40" viewBox="0 0 120 40" fill="none" xmlns="http://www.w3.org/2000/svg">
<path d="M109.863 -2.25879e-05H9.51113C9.14533 -2.25879e-05 8.78393 -2.25881e-05 8.4191 0.00197741C8.11371 0.00397741 7.81075 0.00978741 7.50242 0.0146774C6.83259 0.0225792 6.16434 0.0816537 5.50347 0.191387C4.84353 0.30351 4.20426 0.514893 3.60729 0.818387C3.01104 1.12445 2.46624 1.52214 1.99264 1.99705C1.51655 2.47061 1.11969 3.01799 0.817326 3.61814C0.514127 4.21709 0.303888 4.85892 0.19387 5.52146C0.0828059 6.18316 0.0230413 6.8525 0.0151126 7.52346C0.0058555 7.83006 0.00487792 8.13768 0 8.44432V31.5586C0.00487792 31.8691 0.0058555 32.1699 0.0151126 32.4805C0.0230438 33.1514 0.0828083 33.8207 0.19387 34.4824C0.303584 35.1453 0.513836 35.7875 0.817326 36.3867C1.11955 36.9849 1.51647 37.53 1.99264 38.001C2.46444 38.478 3.0096 38.876 3.60729 39.1797C4.20426 39.484 4.84346 39.6966 5.50347 39.8105C6.16445 39.9193 6.83264 39.9784 7.50242 39.9873C7.81075 39.9941 8.11371 39.998 8.4191 39.998C8.78392 40 9.14535 40 9.51113 40H109.863C110.221 40 110.586 40 110.944 39.998C111.248 39.998 111.56 39.9941 111.864 39.9873C112.532 39.9789 113.199 39.9198 113.859 39.8105C114.521 39.6958 115.162 39.4832 115.762 39.1797C116.359 38.8758 116.904 38.4778 117.375 38.001C117.85 37.5282 118.248 36.9834 118.554 36.3867C118.855 35.7871 119.064 35.1449 119.172 34.4824C119.283 33.8206 119.345 33.1515 119.357 32.4805C119.361 32.1699 119.361 31.8691 119.361 31.5586C119.368 31.1953 119.368 30.834 119.368 30.4648V9.53611C119.368 9.1699 119.368 8.80662 119.361 8.44432C119.361 8.13768 119.361 7.83006 119.357 7.52342C119.345 6.8524 119.283 6.18321 119.172 5.52142C119.063 4.85926 118.855 4.21748 118.554 3.6181C117.938 2.41517 116.962 1.436 115.762 0.818297C115.162 0.515545 114.521 0.304218 113.859 0.191297C113.199 0.0810802 112.532 0.0219852 111.864 0.0145374C111.56 0.00965741 111.248 0.00379741 110.944 0.00184741C110.586 -0.000152588 110.221 -0.000152588 109.863 -0.000152588V-2.25879e-05Z" fill="#A6A6A6"/>
<path d="M8.42396 39.125C8.12004 39.125 7.82345 39.1211 7.52191 39.1143C6.89724 39.1061 6.27403 39.0516 5.65739 38.9512C5.0824 38.8519 4.52539 38.6673 4.00474 38.4033C3.48886 38.1415 3.01833 37.7983 2.61119 37.3867C2.19815 36.98 1.85428 36.5082 1.5932 35.9902C1.32924 35.4688 1.14657 34.9099 1.05154 34.333C0.948921 33.7131 0.893398 33.0863 0.885453 32.458C0.879129 32.2471 0.87085 31.5449 0.87085 31.5449V8.44434C0.87085 8.44434 0.879668 7.75293 0.885503 7.5498C0.89311 6.92248 0.94831 6.29665 1.05062 5.67773C1.14583 5.09925 1.32864 4.53875 1.59274 4.01563C1.85286 3.49794 2.19483 3.02586 2.60537 2.61768C3.01546 2.20562 3.48749 1.8606 4.00425 1.59521C4.52371 1.33209 5.07966 1.14873 5.65349 1.05127C6.27215 0.949836 6.89753 0.894996 7.52436 0.88721L8.42445 0.875H110.939L111.85 0.8877C112.471 0.895099 113.091 0.94945 113.704 1.05029C114.283 1.14898 114.845 1.33362 115.371 1.59814C116.406 2.13299 117.248 2.97916 117.78 4.01807C118.039 4.53758 118.219 5.09351 118.313 5.66699C118.417 6.29099 118.475 6.92174 118.487 7.5542C118.49 7.8374 118.49 8.1416 118.49 8.44434C118.498 8.81934 118.498 9.17627 118.498 9.53613V30.4648C118.498 30.8281 118.498 31.1826 118.49 31.54C118.49 31.8652 118.49 32.1631 118.486 32.4697C118.474 33.0909 118.417 33.7104 118.315 34.3232C118.222 34.9043 118.041 35.4675 117.777 35.9932C117.514 36.5056 117.172 36.9733 116.764 37.3789C116.356 37.7927 115.885 38.1379 115.368 38.4014C114.844 38.6674 114.283 38.8527 113.704 38.9512C113.087 39.0522 112.464 39.1067 111.839 39.1143C111.547 39.1211 111.241 39.125 110.944 39.125L109.863 39.127L8.42396 39.125Z" fill="black"/>
<path fill-rule="evenodd" clip-rule="evenodd" d="M74.4947 29.0761C72.864 29.0761 71.6707 28.2676 71.5333 27.0361L69.6356 27.036C69.7555 29.2821 71.6102 30.703 74.3574 30.703C77.2934 30.703 79.1395 29.248 79.1395 26.9247C79.1395 25.1083 78.0835 24.0849 75.5419 23.4823L74.1771 23.1464C72.5805 22.7509 71.9278 22.2343 71.9278 21.3564C71.9278 20.2548 72.9497 19.498 74.4431 19.498C75.9365 19.498 76.9583 20.246 77.0704 21.4853H78.9417C78.8813 19.3427 77.0869 17.871 74.4694 17.871C71.8246 17.871 69.962 19.3427 69.962 21.4853C69.962 23.2158 71.018 24.2822 73.2926 24.833L74.898 25.2207C76.5034 25.6162 77.1814 26.1933 77.1814 27.1572C77.1814 28.2675 76.0573 29.0761 74.4947 29.0761ZM42.1978 27.1397H37.4761L36.3422 30.4961H34.3422L38.8145 18.0781H40.8924L45.3647 30.4961H43.3307L42.1978 27.1397ZM37.9651 25.5908H41.7078L39.8628 20.1436H39.8111L37.9651 25.5908ZM51.2544 30.5908C53.5213 30.5908 55.0234 28.7832 55.0234 25.9697C55.0234 23.1641 53.5125 21.3477 51.2204 21.3477C50.0409 21.3095 48.936 21.9245 48.3447 22.9482H48.3106V21.4424H46.5162V33.4912H48.37V29.0068H48.4129C48.979 30.037 50.0827 30.6523 51.2544 30.5908ZM53.118 25.9697C53.118 24.1367 52.1731 22.9316 50.7313 22.9316C49.3149 22.9316 48.3622 24.1621 48.3622 25.9697C48.3622 27.794 49.3149 29.0156 50.7313 29.0156C52.1731 29.0156 53.118 27.8193 53.118 25.9697ZM61.1947 30.5908C63.4615 30.5908 64.9637 28.7832 64.9637 25.9697C64.9637 23.1641 63.4527 21.3477 61.1605 21.3477C59.9811 21.3095 58.8762 21.9245 58.2848 22.9482H58.2508V21.4424H56.4564V33.4912H58.3102V29.0068H58.3531C58.9193 30.037 60.023 30.6523 61.1947 30.5908ZM63.0582 25.9697C63.0582 24.1367 62.1133 22.9316 60.6715 22.9316C59.2551 22.9316 58.3024 24.1621 58.3024 25.9697C58.3024 27.794 59.2551 29.0156 60.6715 29.0156C62.1133 29.0156 63.0582 27.8193 63.0582 25.9697ZM83.1403 19.2998V21.4424H84.8577V22.9141H83.1403V27.9053C83.1403 28.6807 83.4842 29.042 84.2391 29.042C84.443 29.0384 84.6466 29.0241 84.849 28.999V30.4619C84.5095 30.5255 84.1645 30.5543 83.8193 30.5478C81.9908 30.5478 81.2777 29.8594 81.2777 28.1035V22.9141H79.9646V21.4424H81.2777V19.2998H83.1403ZM90.1357 21.3311C87.526 21.3311 85.8524 23.1211 85.8524 25.9697C85.8524 28.8262 87.5094 30.6084 90.1357 30.6084C92.763 30.6084 94.42 28.8262 94.42 25.9697C94.42 23.1211 92.7542 21.3311 90.1357 21.3311ZM92.5312 25.9697C92.5312 24.0156 91.6379 22.8623 90.1357 22.8623C88.6336 22.8623 87.7413 24.0244 87.7413 25.9697C87.7413 27.9316 88.6336 29.0762 90.1357 29.0762C91.6379 29.0762 92.5311 27.9316 92.5311 25.9697H92.5312ZM97.7165 21.4424H95.9485L95.9484 30.4961H97.8022V25.126C97.7405 24.5827 97.9188 24.0395 98.2902 23.639C98.6615 23.2385 99.189 23.0208 99.734 23.043C100.016 23.0347 100.297 23.0727 100.567 23.1553V21.417C100.358 21.3702 100.145 21.3469 99.9318 21.3476C98.9127 21.3086 98.006 21.9914 97.7594 22.9834H97.7165V21.4424ZM109.114 27.8369C108.865 29.4805 107.268 30.6084 105.225 30.6084C102.598 30.6084 100.967 28.8437 100.967 26.0127C100.967 23.1729 102.607 21.3311 105.147 21.3311C107.646 21.3311 109.217 23.0518 109.217 25.7969V26.4336H102.839V26.5459C102.779 27.2199 103.011 27.8871 103.476 28.3778C103.941 28.8684 104.594 29.1352 105.268 29.1103C106.168 29.1948 107.016 28.677 107.354 27.8369L109.114 27.8369ZM107.363 25.1348H102.847C102.846 24.5235 103.088 23.9369 103.52 23.5054C103.952 23.0739 104.538 22.8333 105.147 22.8369C105.752 22.8239 106.335 23.0644 106.756 23.5006C107.176 23.9368 107.396 24.5291 107.363 25.1348Z" fill="white"/>
<path fill-rule="evenodd" clip-rule="evenodd" d="M58.9478 8.43701H59.8342V14.6978H58.9478V8.43701ZM39.8331 9.54888C39.2906 8.97456 38.5197 8.6744 37.7327 8.73101H35.5828V14.6979H37.7327C39.5057 14.6979 40.5334 13.6021 40.5334 11.6959C40.6327 10.9112 40.3756 10.1232 39.8331 9.54888ZM37.6295 13.854H36.5073V9.57422H37.6295C38.1889 9.5431 38.733 9.76423 39.1128 10.1771C39.4927 10.5901 39.6686 11.1515 39.5924 11.708C39.6745 12.2668 39.5011 12.833 39.1203 13.2493C38.7395 13.6656 38.1919 13.8877 37.6295 13.854ZM41.5777 12.4444C41.5007 11.6372 41.8867 10.8561 42.574 10.4286C43.2612 10.0011 44.1308 10.0011 44.818 10.4286C45.5052 10.8561 45.8913 11.6372 45.8143 12.4444C45.8928 13.2523 45.5071 14.035 44.8192 14.4634C44.1314 14.8918 43.2606 14.8918 42.5728 14.4634C41.8849 14.035 41.4992 13.2523 41.5777 12.4444ZM43.6975 10.8975C44.4651 10.8975 44.9025 11.4683 44.9025 12.4444H44.9025C44.9025 13.4243 44.4651 13.9946 43.6975 13.9947C42.9269 13.9947 42.4934 13.4283 42.4934 12.4444C42.4934 11.4683 42.9269 10.8975 43.6975 10.8975ZM51.4459 14.6978H50.5263L49.5979 11.3814H49.5278L48.6033 14.6978H47.6925L46.4543 10.1948H47.3535L48.1581 13.6308H48.2244L49.1478 10.1948H49.9983L50.9218 13.6308H50.9919L51.7927 10.1948H52.6791L51.4459 14.6978ZM54.5738 10.1948H53.7205L53.7205 14.6978H54.607V12.0635C54.5752 11.7638 54.6755 11.4652 54.8816 11.2458C55.0878 11.0265 55.3792 10.9084 55.6795 10.9224C56.3351 10.9224 56.6488 11.2822 56.6488 12.0059V14.6977H57.5353V11.7827C57.6002 11.3424 57.462 10.8964 57.1595 10.5706C56.8571 10.2448 56.4232 10.0745 55.9805 10.1079C55.4087 10.0613 54.8705 10.3835 54.6401 10.9102H54.5738V10.1948ZM62.063 10.4285C61.3757 10.8561 60.9896 11.6372 61.0666 12.4444C60.9882 13.2524 61.374 14.035 62.0618 14.4634C62.7497 14.8918 63.6205 14.8918 64.3084 14.4634C64.9962 14.035 65.382 13.2524 65.3036 12.4444C65.3806 11.6372 64.9945 10.8561 64.3072 10.4285C63.6199 10.001 62.7503 10.001 62.063 10.4285ZM64.3913 12.4444C64.3913 11.4683 63.9539 10.8975 63.1863 10.8975C62.4158 10.8975 61.9823 11.4683 61.9823 12.4444C61.9823 13.4283 62.4158 13.9947 63.1863 13.9947C63.9539 13.9946 64.3913 13.4243 64.3913 12.4444ZM67.9075 12.0801C66.8389 12.1465 66.2369 12.6138 66.2369 13.4243C66.2384 13.8087 66.402 14.1744 66.6872 14.4312C66.9725 14.6879 67.3528 14.8117 67.7341 14.772C68.2781 14.7972 68.7935 14.5271 69.0833 14.065H69.1535V14.6978H70.0068V11.6211C70.0068 10.6699 69.3717 10.1079 68.2456 10.1079C67.2266 10.1079 66.5009 10.604 66.4103 11.3775H67.2685C67.3669 11.0591 67.7098 10.877 68.2047 10.877C68.8106 10.877 69.1242 11.1455 69.1242 11.6211V12.0098L67.9075 12.0801ZM69.1242 13.0396V12.6631L68.0273 12.7334C67.4088 12.7749 67.1282 12.9859 67.1282 13.3828C67.1282 13.7881 67.4789 14.0239 67.9611 14.0239C68.2466 14.0529 68.5316 13.9645 68.7508 13.7789C68.9701 13.5934 69.1048 13.3266 69.1242 13.0396ZM73.0364 10.1201C71.9015 10.1201 71.1719 11.0215 71.1719 12.4444C71.1719 13.8706 71.8938 14.772 73.0364 14.772C73.6158 14.7934 74.1591 14.4907 74.447 13.9863H74.5171V14.6978H75.3666V8.43701H74.4801V10.9101H74.4139C74.1462 10.4015 73.6095 10.0937 73.0364 10.1201ZM72.0876 12.4444C72.0876 13.3994 72.5367 13.9741 73.2878 13.9741C74.0349 13.9741 74.4967 13.3911 74.4967 12.4483C74.4967 11.5098 74.0301 10.9185 73.2878 10.9185C72.5416 10.9185 72.0876 11.4971 72.0876 12.4444H72.0876ZM80.0305 10.4286C79.3433 10.8561 78.9572 11.6372 79.0343 12.4444C78.9558 13.2523 79.3415 14.035 80.0293 14.4634C80.7172 14.8918 81.5879 14.8918 82.2758 14.4634C82.9636 14.035 83.3493 13.2523 83.2708 12.4444C83.3479 11.6372 82.9618 10.8561 82.2746 10.4286C81.5873 10.0011 80.7178 10.0011 80.0305 10.4286ZM82.359 12.4444C82.359 11.4683 81.9216 10.8975 81.154 10.8975C80.3835 10.8975 79.95 11.4683 79.95 12.4444C79.95 13.4283 80.3835 13.9947 81.154 13.9947C81.9216 13.9946 82.359 13.4243 82.359 12.4444ZM85.3136 10.1948H84.4603V14.6978H85.3468V12.0635C85.3149 11.7638 85.4153 11.4652 85.6214 11.2458C85.8276 11.0265 86.119 10.9084 86.4193 10.9224C87.0749 10.9224 87.3886 11.2822 87.3886 12.0059V14.6977H88.2751V11.7827C88.34 11.3424 88.2018 10.8964 87.8993 10.5706C87.5969 10.2448 87.163 10.0745 86.7203 10.1079C86.1485 10.0613 85.6102 10.3835 85.3799 10.9102H85.3136V10.1948ZM93.2841 9.07374V10.2153H94.2573V10.9639H93.2841V13.2793C93.2841 13.751 93.478 13.9575 93.9193 13.9575C94.0323 13.9572 94.1451 13.9503 94.2573 13.937V14.6773C94.0981 14.7058 93.9368 14.721 93.7751 14.7227C92.7893 14.7227 92.3967 14.375 92.3967 13.5068V10.9638H91.6836V10.2153H92.3967V9.07374H93.2841ZM96.3469 8.43701H95.4682L95.4682 14.6977H96.3547V12.0679C96.3273 11.7589 96.4373 11.4535 96.6554 11.2334C96.8734 11.0133 97.1773 10.9009 97.4857 10.9263C98.112 10.9263 98.4462 11.2905 98.4462 12.0098V14.6978H99.3336V11.7905C99.3923 11.3525 99.2531 10.9111 98.9539 10.5864C98.6548 10.2618 98.2268 10.0878 97.7866 10.1118C97.2062 10.0646 96.6584 10.3872 96.417 10.9185H96.3469V8.43701ZM104.502 13.4819C104.254 14.3313 103.434 14.8801 102.556 14.7847C101.957 14.8005 101.382 14.5516 100.982 14.1041C100.582 13.6565 100.399 13.0555 100.481 12.4605C100.401 11.8638 100.584 11.2618 100.981 10.8105C101.379 10.3591 101.952 10.1028 102.552 10.1079C103.802 10.1079 104.556 10.9639 104.556 12.3779V12.688H101.384V12.7378C101.356 13.072 101.47 13.4025 101.698 13.6481C101.925 13.8936 102.246 14.0315 102.58 14.0278C103.014 14.08 103.436 13.8643 103.649 13.4819L104.502 13.4819ZM103.653 12.0308H101.384C101.38 11.7203 101.501 11.4213 101.72 11.2017C101.939 10.982 102.238 10.8604 102.547 10.8643C102.853 10.8572 103.147 10.9799 103.358 11.2021C103.568 11.4242 103.676 11.7252 103.653 12.0308Z" fill="white"/>
<path fill-rule="evenodd" clip-rule="evenodd" d="M23.0946 8.72028C23.1912 9.98451 22.7923 11.2367 21.9828 12.2109C21.1974 13.1902 20.0074 13.7542 18.754 13.7413C18.6743 12.5134 19.0848 11.3042 19.8949 10.3799C20.7154 9.44306 21.8578 8.8505 23.0946 8.72028ZM27.0584 16.1486C25.6167 17.0372 24.7295 18.6042 24.7077 20.3007C24.7097 22.22 25.8563 23.9522 27.6197 24.6999C27.2806 25.8043 26.7694 26.848 26.105 27.7924C25.2129 29.1303 24.2774 30.4373 22.7927 30.4615C22.0866 30.4778 21.61 30.2743 21.1133 30.0622C20.5952 29.8409 20.0554 29.6104 19.2106 29.6104C18.3147 29.6104 17.7507 29.8484 17.2067 30.0779C16.7366 30.2762 16.2815 30.4682 15.6401 30.4949C14.2261 30.5474 13.1455 29.0669 12.2209 27.7416C10.3729 25.035 8.93383 20.1139 10.8631 16.7655C11.769 15.1335 13.4629 14.0979 15.3249 14.0376C16.1269 14.0211 16.8964 14.3309 17.571 14.6026C18.087 14.8104 18.5474 14.9958 18.9245 14.9958C19.256 14.9958 19.7036 14.8177 20.2253 14.6101C21.047 14.2832 22.0525 13.8831 23.0771 13.9909C24.6693 14.0409 26.1448 14.8405 27.0584 16.1486Z" fill="white"/>
</svg>
