<svg width="49" height="49" viewBox="0 0 49 49" fill="none" xmlns="http://www.w3.org/2000/svg">
<path d="M11.1665 22.5784V23.4803C11.1725 25.7079 12.8994 27.5518 15.1218 27.7035V34.0384C15.1218 34.4779 15.4781 34.8342 15.9176 34.8342H18.7348C19.1743 34.8342 19.5306 34.4779 19.5306 34.0384V27.7168H19.9922V18.334H15.4109C13.0668 18.334 11.1665 20.2343 11.1665 22.5784Z" fill="#893168"/>
<path d="M35.6968 13.6382C35.4765 13.4881 35.1957 13.4582 34.9487 13.5587L21.8521 19.1295V26.9021L34.9487 32.4729C35.3534 32.6443 35.8205 32.4552 35.9919 32.0505C36.0334 31.9525 36.0549 31.8472 36.0549 31.7407V14.3014C36.0545 14.0343 35.92 13.7852 35.6968 13.6382Z" fill="#893168"/>
</svg>
