<svg width="166" height="80" viewBox="0 0 166 80" fill="none" xmlns="http://www.w3.org/2000/svg">
<path d="M36.1434 42.5013L37.3288 42.3147V31.3505L36 31.178L36.0717 30H44.3491L44.1482 33.3177L42.4961 33.2744L42.3961 31.1922H39.8344V36.1222H40.9502L41.2085 34.9874L42.3683 35.0158V38.4201H41.2227L40.9495 37.2569H39.8344V42.4871H42.4103L42.6544 40.2183L44.3924 40.2758L44.5215 43.7368H36.0866L36.1434 42.5013Z" fill="black"/>
<path d="M45.2793 43.7369L45.3226 42.7171L46.2531 42.5304V35.6177L45.165 35.5169V34.4829L47.887 34.0954L48.0919 34.6845V35.072C48.7526 34.3822 49.5425 33.9805 50.5481 33.9805C52.0277 33.9805 53.1192 34.8711 53.1192 36.6524V42.5311L54.1065 42.7177L54.0491 43.7375H50.8389V37.1474C50.8389 36.1993 50.4906 35.6677 49.6425 35.6677C49.3551 35.6677 49.1502 35.7252 48.921 35.7969C48.7769 35.9119 48.6478 36.0843 48.5328 36.2426V42.5304L49.5093 42.7171L49.4376 43.7369H45.2793Z" fill="black"/>
<path d="M97.2119 43.7369L97.2552 42.7171L98.1858 42.5304V35.6177L97.0977 35.5169V34.4829L99.8196 34.0954L100.024 34.6845V35.072C100.685 34.3822 101.474 33.9805 102.48 33.9805C103.96 33.9805 105.051 34.8711 105.051 36.6524V42.5311L106.038 42.7177L105.981 43.7375H102.771V37.1474C102.771 36.1993 102.422 35.6677 101.574 35.6677C101.288 35.6677 101.083 35.7252 100.853 35.7969C100.71 35.9119 100.58 36.0843 100.465 36.2426V42.5304L101.442 42.7171L101.37 43.7369H97.2119Z" fill="black"/>
<path d="M59.2388 43.5461C58.8655 43.7043 58.1906 43.8761 57.3142 43.8761C56.1652 43.8761 55.0954 43.3594 55.0954 41.6782V35.6129L54.0039 35.4404L54.0472 34.234L55.2827 34.1765L55.8143 32.3377L57.3872 32.2654V34.2333H59.0968L58.9785 35.4397L57.4177 35.6129V41.664C57.4177 42.1665 57.6909 42.4972 58.2075 42.4972H59.1374L59.2388 43.5461Z" fill="black"/>
<path d="M123.575 43.7369L123.619 42.7455L124.495 42.5447V35.6184L123.461 35.5177V34.483L126.272 34.0955L126.459 34.7704V34.9861C127.192 34.4404 128.197 34.0813 129.39 34.0813L129.806 34.4404L129.519 37.0406L127.968 36.9831L127.81 35.59C127.451 35.6475 127.106 35.7483 126.819 35.9491V42.5454L127.796 42.7462L127.724 43.7376H123.575V43.7369Z" fill="black"/>
<path d="M83.0866 43.7369L83.1299 42.7455L84.0064 42.5447V35.6184L82.9717 35.5177V34.483L85.7829 34.0955L85.9695 34.7704V34.9861C86.7026 34.4404 87.7075 34.0813 88.9004 34.0813L89.317 34.4404L89.0296 37.0406L87.4783 36.9831L87.3207 35.59C86.9616 35.6475 86.6167 35.7483 86.3293 35.9491V42.5454L87.3065 42.7462L87.2348 43.7376H83.0866V43.7369Z" fill="black"/>
<path d="M59.9236 43.7369L59.9668 42.7455L60.8433 42.5447V35.6184L59.8086 35.5177V34.483L62.6205 34.0955L62.8071 34.7704V34.9861C63.5395 34.4404 64.5451 34.0813 65.7374 34.0813L66.1539 34.4404L65.8665 37.0406L64.3152 36.9831L64.1569 35.59C63.7978 35.6475 63.453 35.7483 63.1655 35.9491V42.5454L64.1427 42.7462L64.0711 43.7376H59.9236V43.7369Z" fill="black"/>
<path fill-rule="evenodd" clip-rule="evenodd" d="M70.9813 42.4547C69.5497 42.4547 68.8355 41.1759 68.8355 39.5244L73.5396 39.4805L73.7837 38.863C73.7837 36.2777 72.8342 33.9568 70.3328 33.9568C67.4526 33.9568 66.4111 36.5502 66.4111 38.9205C66.4111 41.7074 67.857 43.8762 70.3598 43.8762C71.6528 43.8762 72.6767 43.4454 73.3807 42.8854L72.9925 41.9806C72.3027 42.2964 71.7137 42.4547 70.9813 42.4547ZM71.6832 38.2889L68.7922 38.4181C68.7862 37.7547 68.9843 36.3271 69.4496 35.5372C69.7945 35.3506 69.9879 35.3073 70.2563 35.3073C71.3877 35.3073 71.6258 37.1393 71.6832 38.2889Z" fill="black"/>
<path fill-rule="evenodd" clip-rule="evenodd" d="M110.924 42.4547C109.493 42.4547 108.779 41.1759 108.779 39.5244L113.482 39.4805L113.726 38.863C113.726 36.2777 112.777 33.9568 110.275 33.9568C107.394 33.9568 106.354 36.5502 106.354 38.9205C106.354 41.7074 107.799 43.8762 110.302 43.8762C111.595 43.8762 112.62 43.4454 113.323 42.8854L112.936 41.9806C112.246 42.2964 111.657 42.4547 110.924 42.4547ZM111.626 38.2889L108.735 38.4181C108.73 37.7547 108.927 36.3271 109.393 35.5372C109.738 35.3506 109.931 35.3073 110.199 35.3073C111.331 35.3073 111.569 37.1393 111.626 38.2889Z" fill="black"/>
<path fill-rule="evenodd" clip-rule="evenodd" d="M94.1431 42.4547C92.7115 42.4547 91.9973 41.1759 91.9973 39.5244L96.7 39.4805L96.9442 38.863C96.9442 36.2777 95.9947 33.9568 93.4932 33.9568C90.613 33.9568 89.5723 36.5502 89.5723 38.9205C89.5723 41.7074 91.0181 43.8762 93.5209 43.8762C94.8139 43.8762 95.8385 43.4454 96.5418 42.8854L96.1543 41.9806C95.4645 42.2964 94.8762 42.4547 94.1431 42.4547ZM94.8451 38.2889L91.954 38.4181C91.9486 37.7547 92.1461 36.3271 92.6114 35.5372C92.9563 35.3506 93.1497 35.3073 93.4182 35.3073C94.5495 35.3073 94.7876 37.1393 94.8451 38.2889Z" fill="black"/>
<path d="M120.224 43.7368L119.98 42.9178C119.347 43.5211 118.73 43.8802 117.768 43.8802C116.288 43.8802 114.963 43.1336 114.963 41.0933V35.3708L113.875 35.27V34.3652L116.999 34.0061L117.243 34.8251V40.8066C117.243 41.8554 117.665 42.4012 118.514 42.4012C118.756 42.4012 119.061 42.3721 119.333 42.2578C119.491 42.0996 119.635 41.9129 119.764 41.7263V35.3708L118.643 35.27V34.3652L121.799 34.0061L122.044 34.8251V42.5303L123.017 42.717L122.902 43.7368H120.224Z" fill="black"/>
<path fill-rule="evenodd" clip-rule="evenodd" d="M79.3154 33.9663C81.453 33.9663 82.3146 35.7888 82.3146 38.6893C82.3146 40.3218 82.2828 43.8809 78.8034 43.8796C78.1995 43.8796 77.6436 43.7362 77.2555 43.5205V47.2359L78.232 47.4225L78.1603 48.3997H74.0128L74.0561 47.4225L74.9758 47.2359V35.5197L73.8877 35.3763V34.3863L76.6955 33.9981L76.9397 34.817V35.1329C77.2183 34.7866 77.8939 33.9663 79.3154 33.9663ZM77.2555 42.243C77.5713 42.4148 77.9595 42.5014 78.4619 42.5014C78.9218 42.5014 79.2951 42.4155 79.6406 42.2437C79.6491 42.2199 79.6597 42.1927 79.6721 42.1613C79.7907 41.8588 80.066 41.1571 80.066 39.114C80.066 36.7721 79.8523 35.4635 78.5606 35.4635C78.259 35.4635 77.9885 35.5062 77.7011 35.6069C77.5429 35.7794 77.3846 35.966 77.2555 36.1669V42.243Z" fill="black"/>
<path fill-rule="evenodd" clip-rule="evenodd" d="M129.991 43.0659C129.991 42.6723 129.689 42.3923 129.216 42.3923C128.755 42.3923 128.441 42.6682 128.441 43.0659C128.441 43.4629 128.759 43.7394 129.216 43.7394C129.681 43.7394 129.991 43.4629 129.991 43.0659ZM129.749 43.0652C129.749 43.3384 129.538 43.5284 129.216 43.5284C128.899 43.5284 128.688 43.3384 128.688 43.0652C128.688 42.7886 128.899 42.602 129.216 42.602C129.538 42.602 129.749 42.792 129.749 43.0652ZM128.879 43.3695L128.883 43.2762L128.963 43.2586V42.8441L128.872 42.8339L128.876 42.7406H129.245C129.404 42.7406 129.551 42.792 129.547 42.9306C129.543 43.0273 129.488 43.0828 129.412 43.1139C129.452 43.1761 129.507 43.2417 129.547 43.2661L129.603 43.2762L129.594 43.3695H129.408C129.344 43.3175 129.285 43.2485 129.229 43.1382H129.17V43.2593L129.249 43.2769L129.241 43.3702H128.879V43.3695ZM129.168 43.0348V42.8549H129.212C129.288 42.8549 129.348 42.8691 129.348 42.9482C129.348 43.0003 129.327 43.0348 129.236 43.0348H129.168Z" fill="black"/>
<path d="M111.754 51.2067H111.264V46.3965H111.754V51.2067Z" fill="black"/>
<path d="M116.612 50.4939H116.626V46.3965H117.115V51.2067H116.504L113.704 47.0687H113.691V51.2067H113.201V46.3965H113.813L116.612 50.4939Z" fill="black"/>
<path fill-rule="evenodd" clip-rule="evenodd" d="M120.158 46.3965H118.562V51.2074H120.158C120.456 51.2074 120.757 51.158 121.058 51.0579C121.359 50.9579 121.632 50.8077 121.874 50.6055C122.115 50.4047 122.311 50.1538 122.462 49.8555C122.611 49.556 122.685 49.2057 122.685 48.8019C122.685 48.4036 122.611 48.0533 122.462 47.7517C122.311 47.4508 122.115 47.1999 121.874 46.9977C121.632 46.7962 121.359 46.6453 121.058 46.5459C120.757 46.4465 120.456 46.3965 120.158 46.3965ZM120.023 50.7726H119.051V46.8313H120.023C120.385 46.8313 120.701 46.8881 120.97 47.0017C121.24 47.1147 121.463 47.2628 121.64 47.446C121.816 47.63 121.949 47.8396 122.037 48.075C122.125 48.3103 122.169 48.5531 122.169 48.8019C122.169 49.0508 122.125 49.2929 122.037 49.5289C121.949 49.7649 121.816 49.9739 121.64 50.1572C121.463 50.3404 121.24 50.4892 120.97 50.6021C120.701 50.7158 120.385 50.7726 120.023 50.7726Z" fill="black"/>
<path d="M124.364 51.2067H123.875V46.3965H124.364V51.2067Z" fill="black"/>
<path fill-rule="evenodd" clip-rule="evenodd" d="M125.24 51.2067H125.777L126.3 49.9428H128.787L129.317 51.2067H129.86L127.794 46.3965H127.319L125.24 51.2067ZM128.604 49.4944H126.484L127.544 46.9402L128.604 49.4944Z" fill="black"/>
</svg>
