<svg width="166" height="80" viewBox="0 0 166 80" fill="none" xmlns="http://www.w3.org/2000/svg">
<path d="M74.1901 50.9731H65.4375V48.0164H66.3113C66.6981 48.0164 66.827 47.799 66.827 47.4367V40.03C66.827 39.6676 66.6838 39.4502 66.3113 39.4502H65.4375V36.4064H73.2017V38.6095C74.1328 36.8847 75.6226 36.1021 77.714 36.1021C80.5504 36.1021 81.5675 37.1891 81.8969 38.8851C82.7708 36.9572 84.3179 36.1021 86.5239 36.1021C90.1338 36.1021 90.8214 37.8558 90.8214 40.4503V47.4367C90.8214 47.799 90.9933 48.0164 91.4231 48.0164H92.168V50.9731H83.5586V48.0164H83.9168C84.2749 48.0164 84.4325 47.799 84.4325 47.4367V41.117C84.4325 39.914 84.1603 39.5373 83.3294 39.5373C82.2264 39.5373 82.0115 40.4503 82.0115 41.8707V47.4075C82.0115 47.799 82.1834 48.0164 82.5272 48.0164H83V50.9731H74.7488V48.0164H75.1069C75.465 48.0164 75.6226 47.799 75.6226 47.4367V41.117C75.6226 39.914 75.3504 39.5373 74.5196 39.5373C73.4165 39.5373 73.2017 40.4503 73.2017 41.8707V47.4075C73.2017 47.799 73.3449 48.0164 73.7174 48.0164H74.1901V50.9731Z" fill="#F99D1C"/>
<path fill-rule="evenodd" clip-rule="evenodd" d="M100.376 32.3191C100.376 30.5363 98.944 29.0869 97.182 29.0869C95.4487 29.0869 94.0162 30.5363 94.0162 32.3191C94.0162 34.0729 95.4487 35.5223 97.182 35.5223C98.944 35.5223 100.376 34.0729 100.376 32.3191ZM93.5291 39.4503C93.9015 39.4503 94.0448 39.6677 94.0448 40.03V47.4366C94.0448 47.7989 93.9159 48.0163 93.5291 48.0163H92.6553V50.9732H101.766V48.0163H100.935C100.563 48.0163 100.419 47.7989 100.419 47.4076V36.4065H92.6553V39.4503H93.5291Z" fill="#F99D1C"/>
<path d="M110.992 50.9731H102.239V48.0164H103.113C103.5 48.0164 103.629 47.799 103.629 47.4367V40.03C103.629 39.6676 103.486 39.4502 103.113 39.4502H102.239V36.4064H110.004V38.6385C110.877 36.8847 112.338 36.1021 114.731 36.1021C118.054 36.1021 118.914 37.8558 118.914 40.4503V47.4367C118.914 47.799 119.057 48.0164 119.487 48.0164H120.26V50.9731H111.536V48.0164H112.009C112.367 48.0164 112.525 47.799 112.525 47.4367V41.117C112.525 39.914 112.224 39.5373 111.422 39.5373C110.319 39.5373 109.989 40.4503 109.989 41.8707V47.4075C109.989 47.799 110.132 48.0164 110.505 48.0164H110.978V50.9731H110.992Z" fill="#F99D1C"/>
<mask id="mask0" mask-type="alpha" maskUnits="userSpaceOnUse" x="119" y="33" width="11" height="19">
<path fill-rule="evenodd" clip-rule="evenodd" d="M119.357 33.0002H129.657V51.1325H119.357V33.0002Z" fill="white"/>
</mask>
<g mask="url(#mask0)">
<path d="M119.357 36.4064L120.905 36.3194L121.148 33.0002H127.036V36.3919H129.514V39.3922H127.036V45.7117C127.036 47.4365 127.365 47.9872 129.242 47.9872H129.657V50.9441C128.425 51.089 127.122 51.1325 125.89 51.1325C122.48 51.1325 120.933 50.1034 120.69 47.1756V39.4212H119.372V36.4064H119.357Z" fill="#F99D1C"/>
</g>
<path d="M39.5383 48.4511C39.5383 49.0018 39.5383 49.4077 39.5813 49.7266C39.6815 50.1179 39.8964 50.3063 40.1256 50.4368C40.3118 50.5237 40.5124 50.5672 40.6986 50.5817V50.7701H36V50.5817C36.1862 50.5672 36.4154 50.5237 36.5444 50.4368C36.8165 50.3063 37.0171 50.1179 37.0744 49.8134C37.1603 49.4367 37.1603 49.0453 37.1603 48.4511V38.7399C37.1603 38.4211 37.1603 37.7109 37.1174 37.4355C37.0314 37.1456 36.9311 36.9572 36.7592 36.8267C36.5587 36.6818 36.3868 36.6528 36.0573 36.6383V36.4644H39.4094C39.5096 36.4644 39.5526 36.4788 39.5526 36.6383C39.5526 37.0586 39.5383 37.5659 39.5383 38.3341V48.4511Z" fill="#252525"/>
<path fill-rule="evenodd" clip-rule="evenodd" d="M43.8643 37.1458C43.0477 37.1458 42.5034 37.74 42.5034 38.5082C42.5034 39.2619 43.0477 39.8707 43.8643 39.8707C44.6808 39.8707 45.2251 39.2619 45.2251 38.5082C45.2251 37.7545 44.6808 37.1458 43.8643 37.1458ZM45.1678 49.7267C45.0962 49.4368 45.0819 49.06 45.0819 48.5382H45.0676V43.2043C45.0676 42.5972 45.0842 42.1835 45.0984 41.8286C45.1029 41.7175 45.1071 41.6122 45.1105 41.5085C45.1105 41.3781 45.0676 41.3636 44.9673 41.3636H41.6009V41.552C41.9734 41.552 42.1596 41.61 42.3315 41.7404C42.5177 41.8419 42.6466 42.0448 42.7039 42.3202C42.7469 42.5811 42.7469 43.3203 42.7469 43.6536V48.5237C42.7469 49.089 42.7326 49.4948 42.6466 49.8282C42.5893 50.1036 42.3745 50.3065 42.1309 50.4369C41.9877 50.5239 41.7585 50.5674 41.5723 50.5819V50.7703H46.2709V50.5819C46.0703 50.5674 45.8554 50.5239 45.7122 50.4369C45.4543 50.3065 45.2681 50.1471 45.1678 49.7267Z" fill="#252525"/>
<path d="M55.3249 41.7115C55.1387 41.8418 54.9668 41.9579 54.8522 42.2333C54.6803 42.4797 54.4367 43.0304 54.1932 43.7407L51.6863 50.8282H50.569L48.234 44.19C47.9905 43.5232 47.7326 42.8275 47.618 42.5521C47.4318 42.1317 47.2885 41.8999 47.0593 41.7405C46.8588 41.5955 46.6296 41.5519 46.4004 41.5085V41.3345H51.3282V41.5085C51.0417 41.523 50.7695 41.5955 50.5833 41.6825C50.4114 41.7839 50.3111 42.0448 50.3111 42.3057C50.3111 42.639 50.44 43.0594 50.6692 43.7696L52.1161 48.3788H52.159L53.7491 43.8566C54.0213 43.1029 54.1073 42.6826 54.1073 42.3782C54.1073 41.9867 53.9354 41.7984 53.7491 41.6825C53.5629 41.581 53.3623 41.5375 53.1475 41.5085V41.3345H55.8836V41.5085C55.7117 41.5519 55.5111 41.61 55.3249 41.7115Z" fill="#252525"/>
<path fill-rule="evenodd" clip-rule="evenodd" d="M57.2157 49.7557C58.0179 50.5382 59.1209 50.9731 60.5248 50.9731C62.7022 50.9731 63.9198 49.6251 64.4355 47.828L64.0774 47.7265C63.7049 49.06 62.8168 50.3355 60.9975 50.3355C60.2526 50.3355 59.6223 50.0889 59.1639 49.5816C58.6482 49.0019 58.3331 47.7699 58.3331 45.9872V45.5524H64.3496C64.3925 45.3203 64.3925 44.987 64.3925 44.7552V44.7552C64.3925 43.0884 63.1892 41.1606 60.4388 41.1606C57.9176 41.1606 55.8262 43.1608 55.8262 46.1175C55.8262 47.5235 56.2416 48.8136 57.2157 49.7557ZM61.4846 45.1754H58.3617C58.462 43.7115 58.7915 42.494 59.2499 42.0446C59.5793 41.6968 59.9948 41.523 60.4675 41.523C61.0118 41.523 61.3413 41.6679 61.6278 41.9578C61.9859 42.378 62.1722 43.1317 62.1722 44.2769C62.1722 45.0305 62.0146 45.1754 61.4846 45.1754Z" fill="#252525"/>
</svg>
