<svg width="166" height="80" viewBox="0 0 166 80" fill="none" xmlns="http://www.w3.org/2000/svg">
<path fill-rule="evenodd" clip-rule="evenodd" d="M49.3084 36.4184V45.5565C49.3084 48.3682 50.799 49.9749 53.5277 49.9749C56.2564 49.9749 57.7471 48.3682 57.7471 45.5565V36.4184C57.7471 33.6067 56.2564 32 53.5277 32C50.799 32 49.3084 33.6067 49.3084 36.4184ZM42.5119 49.7741V43.9498L39 32.2008H41.9055L44.0026 40.2092H44.0531L46.1502 32.2008H48.803L45.2911 43.9498V49.7741H42.5119ZM52.0876 36.2427V45.7322C52.0876 46.9874 52.6434 47.4644 53.5277 47.4644C54.412 47.4644 54.9678 46.9874 54.9678 45.7322V36.2427C54.9678 34.9874 54.412 34.5105 53.5277 34.5105C52.6434 34.5105 52.0876 34.9874 52.0876 36.2427ZM59.4146 32.2008H62.1938V45.7573C62.1938 47.0126 62.7496 47.4644 63.6339 47.4644C64.5182 47.4644 65.0741 47.0126 65.0741 45.7573V32.2008H67.7017V45.5816C67.7017 48.3933 66.2868 50 63.5581 50C60.8295 50 59.4146 48.3933 59.4146 45.5816V32.2008ZM75.4077 49.7741H78.2374C77.9595 49.1213 77.9343 48.4937 77.9343 47.6402V44.9289C77.9343 43.0962 77.4795 41.7908 76.0899 41.2134V41.1632C77.3279 40.5858 77.909 39.431 77.909 37.6234V36.2427C77.909 33.5314 76.671 32.2008 73.7907 32.2008H69.5966V49.7741H72.3758V42.6192H73.3359C74.5992 42.6192 75.155 43.2218 75.155 44.8536V47.6151C75.155 49.0216 75.2527 49.3124 75.4 49.7511L75.4077 49.7741ZM73.7149 34.7113H72.3758V40.1088H73.4622C74.4981 40.1088 75.1298 39.6569 75.1298 38.251V36.5188C75.1298 35.2636 74.7003 34.7113 73.7149 34.7113ZM83.4927 32C80.7893 32 79.3997 33.6067 79.3997 36.4184C79.3997 38.4268 80.1324 39.8828 82.4568 41.9163C84.2759 43.4979 84.8318 44.4519 84.8318 45.7322C84.8318 46.9874 84.2759 47.4393 83.3916 47.4393C82.5073 47.4393 81.9515 46.9874 81.9515 45.7322V44.477H79.3239V45.5565C79.3239 48.3682 80.7387 49.9749 83.4674 49.9749C86.1961 49.9749 87.611 48.3682 87.611 45.5565C87.611 43.5481 86.8783 42.0921 84.5538 40.0586C82.7347 38.477 82.1789 37.523 82.1789 36.2427C82.1789 34.9874 82.6842 34.5105 83.5685 34.5105C84.4528 34.5105 84.9581 34.9874 84.9581 36.2427V36.9707H87.5857V36.4184C87.5857 33.6067 86.1961 32 83.4927 32ZM88.3942 34.7113V32.2008H96.9845V34.7113H94.079V49.7741H91.2997V34.7113H88.3942ZM100.749 45.7322V36.2427C100.749 34.9874 101.305 34.5105 102.189 34.5105C103.074 34.5105 103.629 34.9874 103.629 36.2427V45.7322C103.629 46.9874 103.074 47.4644 102.189 47.4644C101.305 47.4644 100.749 46.9874 100.749 45.7322ZM97.9699 45.5565V36.4184C97.9699 33.6067 99.4605 32 102.189 32C104.918 32 106.409 33.6067 106.409 36.4184V45.5565C106.409 48.3682 104.918 49.9749 102.189 49.9749C99.4605 49.9749 97.9699 48.3682 97.9699 45.5565ZM114.013 49.7741H116.843C116.565 49.1213 116.54 48.4937 116.54 47.6402V44.9289C116.54 43.0962 116.085 41.7908 114.696 41.2134V41.1632C115.934 40.5858 116.515 39.431 116.515 37.6234V36.2427C116.515 33.5314 115.277 32.2008 112.396 32.2008H108.202V49.7741H110.982V42.6192H111.942C113.205 42.6192 113.761 43.2218 113.761 44.8536V47.6151C113.761 49.0216 113.858 49.3124 114.006 49.7511L114.013 49.7741ZM112.321 34.7113H110.982V40.1088H112.068C113.104 40.1088 113.736 39.6569 113.736 38.251V36.5188C113.736 35.2636 113.306 34.7113 112.321 34.7113ZM120.709 43.9498V49.7741H123.488V43.9498L127 32.2008H124.347L122.25 40.2092H122.2L120.103 32.2008H117.197L120.709 43.9498Z" fill="#EF4136"/>
</svg>
