<svg width="32" height="32" viewBox="0 0 32 32" fill="none" xmlns="http://www.w3.org/2000/svg">
<circle cx="16" cy="16" r="16" fill="white"/>
<path d="M13.0005 16C13.0005 14.3432 14.3432 12.9998 16 12.9998C17.6568 12.9998 19.0002 14.3432 19.0002 16C19.0002 17.6568 17.6568 19.0002 16 19.0002C14.3432 19.0002 13.0005 17.6568 13.0005 16ZM11.3786 16C11.3786 18.5524 13.4476 20.6214 16 20.6214C18.5524 20.6214 20.6214 18.5524 20.6214 16C20.6214 13.4476 18.5524 11.3786 16 11.3786C13.4476 11.3786 11.3786 13.4476 11.3786 16ZM19.7243 11.1954C19.7243 11.409 19.7875 11.6178 19.9061 11.7955C20.0247 11.9731 20.1933 12.1116 20.3906 12.1934C20.588 12.2752 20.8051 12.2967 21.0146 12.2551C21.2241 12.2135 21.4166 12.1108 21.5677 11.9598C21.7188 11.8088 21.8218 11.6164 21.8635 11.4069C21.9053 11.1974 21.884 10.9803 21.8023 10.7829C21.7206 10.5855 21.5823 10.4168 21.4047 10.2981C21.2272 10.1793 21.0184 10.1159 20.8048 10.1158H20.8043C20.518 10.1159 20.2435 10.2297 20.041 10.4321C19.8385 10.6345 19.7246 10.909 19.7243 11.1954V11.1954ZM12.364 23.3258C11.4865 23.2858 11.0096 23.1397 10.6927 23.0162C10.2725 22.8526 9.97266 22.6578 9.65745 22.343C9.34223 22.0282 9.14711 21.7287 8.98425 21.3085C8.8607 20.9917 8.71454 20.5146 8.67465 19.6372C8.63102 18.6885 8.6223 18.4035 8.6223 16.0001C8.6223 13.5966 8.63174 13.3125 8.67465 12.363C8.71461 11.4855 8.86185 11.0094 8.98425 10.6917C9.14783 10.2715 9.34266 9.97166 9.65745 9.65644C9.97223 9.34122 10.2718 9.1461 10.6927 8.98324C11.0095 8.85969 11.4865 8.71353 12.364 8.67364C13.3127 8.63001 13.5976 8.6213 16 8.6213C18.4024 8.6213 18.6876 8.63073 19.6371 8.67364C20.5145 8.7136 20.9907 8.86084 21.3084 8.98324C21.7286 9.1461 22.0284 9.34166 22.3436 9.65644C22.6588 9.97122 22.8532 10.2715 23.0168 10.6917C23.1404 11.0085 23.2865 11.4855 23.3264 12.363C23.3701 13.3125 23.3788 13.5966 23.3788 16.0001C23.3788 18.4035 23.3701 18.6877 23.3264 19.6372C23.2865 20.5146 23.1396 20.9915 23.0168 21.3085C22.8532 21.7287 22.6584 22.0285 22.3436 22.343C22.0288 22.6575 21.7286 22.8526 21.3084 23.0162C20.9916 23.1397 20.5145 23.2859 19.6371 23.3258C18.6884 23.3694 18.4034 23.3781 16 23.3781C13.5966 23.3781 13.3124 23.3694 12.364 23.3258V23.3258ZM12.2895 7.0545C11.3314 7.09814 10.6767 7.25006 10.1049 7.47254C9.5128 7.70229 9.01154 8.01052 8.51063 8.51063C8.00973 9.01074 7.70229 9.5128 7.47254 10.1049C7.25006 10.677 7.09814 11.3314 7.0545 12.2895C7.01015 13.2491 7 13.5559 7 16C7 18.4441 7.01015 18.7509 7.0545 19.7105C7.09814 20.6687 7.25006 21.323 7.47254 21.8951C7.70229 22.4868 8.0098 22.9895 8.51063 23.4894C9.01146 23.9893 9.5128 24.2971 10.1049 24.5275C10.6778 24.7499 11.3314 24.9019 12.2895 24.9455C13.2496 24.9891 13.5559 25 16 25C18.4441 25 18.7509 24.9898 19.7105 24.9455C20.6687 24.9019 21.323 24.7499 21.8951 24.5275C22.4868 24.2971 22.9885 23.9895 23.4894 23.4894C23.9903 22.9893 24.2971 22.4868 24.5275 21.8951C24.7499 21.323 24.9026 20.6686 24.9455 19.7105C24.9891 18.7502 24.9993 18.4441 24.9993 16C24.9993 13.5559 24.9891 13.2491 24.9455 12.2895C24.9019 11.3313 24.7499 10.6767 24.5275 10.1049C24.2971 9.51316 23.9895 9.01154 23.4894 8.51063C22.9893 8.00973 22.4868 7.70229 21.8958 7.47254C21.323 7.25006 20.6686 7.09742 19.7112 7.0545C18.7516 7.01087 18.4448 7 16.0007 7C13.5566 7 13.2496 7.01015 12.2895 7.0545Z" fill="url(#paint0_radial)"/>
<path d="M13.0005 16C13.0005 14.3432 14.3432 12.9998 16 12.9998C17.6568 12.9998 19.0002 14.3432 19.0002 16C19.0002 17.6568 17.6568 19.0002 16 19.0002C14.3432 19.0002 13.0005 17.6568 13.0005 16ZM11.3786 16C11.3786 18.5524 13.4476 20.6214 16 20.6214C18.5524 20.6214 20.6214 18.5524 20.6214 16C20.6214 13.4476 18.5524 11.3786 16 11.3786C13.4476 11.3786 11.3786 13.4476 11.3786 16ZM19.7243 11.1954C19.7243 11.409 19.7875 11.6178 19.9061 11.7955C20.0247 11.9731 20.1933 12.1116 20.3906 12.1934C20.588 12.2752 20.8051 12.2967 21.0146 12.2551C21.2241 12.2135 21.4166 12.1108 21.5677 11.9598C21.7188 11.8088 21.8218 11.6164 21.8635 11.4069C21.9053 11.1974 21.884 10.9803 21.8023 10.7829C21.7206 10.5855 21.5823 10.4168 21.4047 10.2981C21.2272 10.1793 21.0184 10.1159 20.8048 10.1158H20.8043C20.518 10.1159 20.2435 10.2297 20.041 10.4321C19.8385 10.6345 19.7246 10.909 19.7243 11.1954V11.1954ZM12.364 23.3258C11.4865 23.2858 11.0096 23.1397 10.6927 23.0162C10.2725 22.8526 9.97266 22.6578 9.65745 22.343C9.34223 22.0282 9.14711 21.7287 8.98425 21.3085C8.8607 20.9917 8.71454 20.5146 8.67465 19.6372C8.63102 18.6885 8.6223 18.4035 8.6223 16.0001C8.6223 13.5966 8.63174 13.3125 8.67465 12.363C8.71461 11.4855 8.86185 11.0094 8.98425 10.6917C9.14783 10.2715 9.34266 9.97166 9.65745 9.65644C9.97223 9.34122 10.2718 9.1461 10.6927 8.98324C11.0095 8.85969 11.4865 8.71353 12.364 8.67364C13.3127 8.63001 13.5976 8.6213 16 8.6213C18.4024 8.6213 18.6876 8.63073 19.6371 8.67364C20.5145 8.7136 20.9907 8.86084 21.3084 8.98324C21.7286 9.1461 22.0284 9.34166 22.3436 9.65644C22.6588 9.97122 22.8532 10.2715 23.0168 10.6917C23.1404 11.0085 23.2865 11.4855 23.3264 12.363C23.3701 13.3125 23.3788 13.5966 23.3788 16.0001C23.3788 18.4035 23.3701 18.6877 23.3264 19.6372C23.2865 20.5146 23.1396 20.9915 23.0168 21.3085C22.8532 21.7287 22.6584 22.0285 22.3436 22.343C22.0288 22.6575 21.7286 22.8526 21.3084 23.0162C20.9916 23.1397 20.5145 23.2859 19.6371 23.3258C18.6884 23.3694 18.4034 23.3781 16 23.3781C13.5966 23.3781 13.3124 23.3694 12.364 23.3258V23.3258ZM12.2895 7.0545C11.3314 7.09814 10.6767 7.25006 10.1049 7.47254C9.5128 7.70229 9.01154 8.01052 8.51063 8.51063C8.00973 9.01074 7.70229 9.5128 7.47254 10.1049C7.25006 10.677 7.09814 11.3314 7.0545 12.2895C7.01015 13.2491 7 13.5559 7 16C7 18.4441 7.01015 18.7509 7.0545 19.7105C7.09814 20.6687 7.25006 21.323 7.47254 21.8951C7.70229 22.4868 8.0098 22.9895 8.51063 23.4894C9.01146 23.9893 9.5128 24.2971 10.1049 24.5275C10.6778 24.7499 11.3314 24.9019 12.2895 24.9455C13.2496 24.9891 13.5559 25 16 25C18.4441 25 18.7509 24.9898 19.7105 24.9455C20.6687 24.9019 21.323 24.7499 21.8951 24.5275C22.4868 24.2971 22.9885 23.9895 23.4894 23.4894C23.9903 22.9893 24.2971 22.4868 24.5275 21.8951C24.7499 21.323 24.9026 20.6686 24.9455 19.7105C24.9891 18.7502 24.9993 18.4441 24.9993 16C24.9993 13.5559 24.9891 13.2491 24.9455 12.2895C24.9019 11.3313 24.7499 10.6767 24.5275 10.1049C24.2971 9.51316 23.9895 9.01154 23.4894 8.51063C22.9893 8.00973 22.4868 7.70229 21.8958 7.47254C21.323 7.25006 20.6686 7.09742 19.7112 7.0545C18.7516 7.01087 18.4448 7 16.0007 7C13.5566 7 13.2496 7.01015 12.2895 7.0545Z" fill="url(#paint1_radial)"/>
<defs>
<radialGradient id="paint0_radial" cx="0" cy="0" r="1" gradientUnits="userSpaceOnUse" gradientTransform="translate(9.39141 25.085) scale(23.4975)">
<stop offset="0.09" stop-color="#FA8F21"/>
<stop offset="0.78" stop-color="#D82D7E"/>
</radialGradient>
<radialGradient id="paint1_radial" cx="0" cy="0" r="1" gradientUnits="userSpaceOnUse" gradientTransform="translate(17.9162 25.8914) scale(18.5193)">
<stop offset="0.64" stop-color="#8C3AAA" stop-opacity="0"/>
<stop offset="1" stop-color="#8C3AAA"/>
</radialGradient>
</defs>
</svg>
