<svg width="32" height="32" viewBox="0 0 32 32" fill="none" xmlns="http://www.w3.org/2000/svg">
<circle cx="16" cy="16" r="16" fill="white"/>
<path d="M8 9.14612C8 8.5135 8.52962 8 9.1825 8H22.8175C23.4706 8 24 8.5135 24 9.14612V22.8541C24 23.4869 23.4706 24 22.8175 24H9.1825C8.52969 24 8 23.4869 8 22.8542V9.14594V9.14612Z" fill="#006699"/>
<path d="M12.8625 21.3893V14.186H10.4682V21.3893H12.8627H12.8625ZM11.6658 13.2026C12.5006 13.2026 13.0203 12.6495 13.0203 11.9582C13.0046 11.2512 12.5006 10.7135 11.6817 10.7135C10.8623 10.7135 10.3271 11.2512 10.3271 11.9582C10.3271 12.6494 10.8466 13.2026 11.6501 13.2026H11.6656L11.6658 13.2026ZM14.1877 21.3893H16.5818V17.3671C16.5818 17.1521 16.5974 16.9365 16.6606 16.7829C16.8336 16.3526 17.2276 15.9072 17.8891 15.9072C18.7553 15.9072 19.102 16.5677 19.102 17.5361V21.3893H21.496V17.2591C21.496 15.0467 20.315 14.0171 18.7398 14.0171C17.4483 14.0171 16.8811 14.7389 16.566 15.2305H16.582V14.1862H14.1878C14.2191 14.862 14.1876 21.3896 14.1876 21.3896L14.1877 21.3893Z" fill="white"/>
</svg>
