<svg width="32" height="32" viewBox="0 0 32 32" fill="none" xmlns="http://www.w3.org/2000/svg">
<circle cx="16" cy="16" r="16" fill="white"/>
<path d="M16 26C21.5228 26 26 21.5228 26 16C26 10.4772 21.5228 6 16 6C10.4772 6 6 10.4772 6 16C6 21.5228 10.4772 26 16 26Z" fill="#34AADF"/>
<path d="M10.1618 15.9132C10.1618 15.9132 15.1618 13.8612 16.8958 13.1387C17.5606 12.8497 19.8149 11.9248 19.8149 11.9248C19.8149 11.9248 20.8554 11.5202 20.7686 12.5028C20.7397 12.9075 20.5085 14.3236 20.2773 15.8554C19.9305 18.0231 19.5548 20.393 19.5548 20.393C19.5548 20.393 19.497 21.0578 19.0057 21.1734C18.5144 21.289 17.7051 20.7688 17.5606 20.6531C17.445 20.5665 15.393 19.2659 14.6416 18.63C14.4392 18.4566 14.208 18.1098 14.6704 17.7052C15.7109 16.7514 16.9536 15.5664 17.7051 14.815C18.0519 14.4681 18.3987 13.6589 16.9536 14.6415C14.9017 16.0578 12.8786 17.3872 12.8786 17.3872C12.8786 17.3872 12.4161 17.6762 11.5491 17.4161C10.682 17.156 9.67049 16.8092 9.67049 16.8092C9.67049 16.8092 8.97689 16.3757 10.1618 15.9132V15.9132Z" fill="white"/>
</svg>
