<svg width="32" height="32" viewBox="0 0 32 32" fill="none" xmlns="http://www.w3.org/2000/svg">
<circle cx="16" cy="16" r="16" fill="#1DA1F2"/>
<path fill-rule="evenodd" clip-rule="evenodd" d="M16 0C24.8366 0 32 7.16344 32 16C32 24.8366 24.8366 32 16 32C7.16344 32 0 24.8366 0 16C0 7.16344 7.16344 0 16 0ZM19.0761 10.0026C17.2588 10.0026 15.7969 11.4746 15.7969 13.2817C15.7969 13.5356 15.8274 13.7893 15.8781 14.033C13.1573 13.8908 10.7309 12.5914 9.11672 10.6015C8.83244 11.0888 8.67003 11.6472 8.67003 12.2563C8.67003 13.3934 9.24869 14.3985 10.1319 14.9873C9.59391 14.967 9.08625 14.8147 8.64972 14.5711V14.6117C8.64972 16.2056 9.77666 17.5254 11.2792 17.83C11.0051 17.901 10.7107 17.9416 10.4163 17.9416C10.203 17.9416 10 17.9213 9.79694 17.8909C10.2132 19.1904 11.4213 20.1345 12.8629 20.165C11.736 21.0483 10.3248 21.566 8.79187 21.566C8.51775 21.566 8.26397 21.5558 8 21.5254C9.45178 22.4594 11.1777 22.9975 13.0355 22.9975C19.066 22.9975 22.3655 18.0025 22.3655 13.6675C22.3655 13.5254 22.3655 13.3833 22.3553 13.2411C22.9949 12.7741 23.5533 12.1954 23.9999 11.5457C23.4111 11.7995 22.7715 11.9823 22.1116 12.0533C22.7918 11.6473 23.3096 11.0077 23.5532 10.2462C22.9238 10.6218 22.2131 10.896 21.472 11.0381C20.873 10.3985 20.0203 10.0026 19.0761 10.0026Z" fill="white"/>
</svg>
