<svg width="32" height="32" viewBox="0 0 32 32" fill="none" xmlns="http://www.w3.org/2000/svg">
<circle cx="16" cy="16" r="16" fill="white"/>
<path d="M16.6659 23.1115L12.4751 23.0348C11.1182 23.0081 9.75799 23.0614 8.42772 22.7847C6.40407 22.3713 6.26071 20.3443 6.11069 18.644C5.90399 16.2536 5.98401 13.8198 6.37409 11.4493C6.5943 10.1192 7.46092 9.32556 8.80112 9.2392C13.3253 8.92576 17.8795 8.96291 22.3936 9.10914C22.8704 9.12254 23.3504 9.19581 23.8205 9.27921C26.141 9.68597 26.1976 11.9831 26.348 13.9168C26.498 15.8705 26.4347 17.8342 26.148 19.7745C25.9179 21.3811 25.4778 22.7284 23.6205 22.8584C21.2933 23.0285 19.0196 23.1654 16.6858 23.1218C16.6859 23.1115 16.6725 23.1115 16.6659 23.1115ZM14.2021 19.0441C15.9558 18.0372 17.6761 17.047 19.4198 16.0469C17.6628 15.0399 15.9458 14.0498 14.2021 13.0496V19.0441Z" fill="#FF0000"/>
</svg>
