<?xml version="1.0" encoding="UTF-8" ?>
<!DOCTYPE svg PUBLIC "-//W3C//DTD SVG 1.1//EN" "http://www.w3.org/Graphics/SVG/1.1/DTD/svg11.dtd">
<svg width="183pt" height="50pt" viewBox="0 0 183 50" version="1.1" xmlns="http://www.w3.org/2000/svg">
<path fill="#5367ff" stroke="#5367ff" stroke-width="0.09375" opacity="1.00" d=" M 8.8 6.9 C 12.9 3.1 18.4 1.2 23.9 0.7 C 32.6 0.5 41.1 5.3 45.6 12.8 L 45.4 13.0 C 39.8 18.3 34.4 23.7 28.9 29.0 C 23.9 27.4 19.1 25.4 14.1 23.6 C 9.9 26.4 5.7 29.1 1.5 31.8 C -1.2 23.0 1.9 12.9 8.8 6.9 Z" />
<path fill="#ebebeb" stroke="#ebebeb" stroke-width="0.09375" opacity="1.00" d=" M 66.3 14.3 C 71.0 9.7 78.9 10.3 83.9 14.0 C 83.0 15.2 82.1 16.3 81.2 17.4 C 78.6 15.2 74.6 13.9 71.3 15.7 C 66.3 18.2 65.2 25.8 69.3 29.7 C 72.2 32.8 77.2 32.3 80.7 30.3 C 80.7 28.8 80.7 27.2 80.7 25.6 C 78.6 25.7 76.6 25.7 74.6 25.7 C 74.6 24.5 74.5 23.4 74.5 22.2 C 77.9 21.5 81.3 22.3 84.7 22.1 C 84.7 25.5 84.7 28.9 84.7 32.3 C 79.8 36.3 72.0 37.4 66.8 33.2 C 61.1 28.7 60.9 19.1 66.3 14.3 Z" />
<path fill="#00ffc4" stroke="#00ffc4" stroke-width="0.09375" opacity="1.00" d=" M 28.9 29.0 C 34.4 23.7 39.8 18.3 45.4 13.0 C 46.3 14.4 47.1 16.0 47.8 17.6 L 46.8 18.3 C 40.7 22.9 35.6 28.6 29.8 33.6 C 24.8 32.5 20.4 29.4 15.3 28.7 C 11.0 30.6 7.3 33.9 2.8 35.6 C 2.4 34.4 1.9 33.1 1.5 31.8 C 5.7 29.1 9.9 26.4 14.1 23.6 C 19.1 25.4 23.9 27.4 28.9 29.0 Z" />
<path fill="#ebebeb" stroke="#ebebeb" stroke-width="0.09375" opacity="1.00" d=" M 110.6 17.1 C 117.1 15.6 123.5 22.2 121.6 28.7 C 120.1 36.5 108.3 38.4 104.2 31.6 C 100.4 26.3 104.1 17.9 110.6 17.1 M 109.4 21.4 C 105.6 23.7 106.1 30.1 110.2 31.8 C 113.9 33.8 118.5 30.0 117.7 26.0 C 117.9 21.9 112.7 19.0 109.4 21.4 Z" />
<path fill="#ebebeb" stroke="#ebebeb" stroke-width="0.09375" opacity="1.00" d=" M 93.7 21.4 C 94.7 18.8 97.0 17.0 99.8 16.7 C 99.8 18.2 99.9 19.7 99.9 21.2 C 97.8 21.5 95.5 22.3 94.5 24.4 C 93.0 27.9 93.8 31.8 93.6 35.5 C 92.2 35.5 90.9 35.5 89.5 35.5 C 89.5 29.4 89.5 23.4 89.5 17.3 C 90.5 17.3 92.6 17.3 93.6 17.3 C 93.6 18.3 93.7 20.3 93.7 21.4 Z" />
<path fill="#ebebeb" stroke="#ebebeb" stroke-width="0.09375" opacity="1.00" d=" M 124.8 17.3 C 126.2 17.3 127.6 17.3 129.1 17.4 C 130.3 21.3 131.0 25.5 132.8 29.2 C 134.0 25.2 135.3 21.2 136.6 17.2 C 137.8 17.3 139.0 17.3 140.2 17.3 C 141.4 21.5 142.9 25.6 144.1 29.8 C 145.4 25.7 146.6 21.5 147.8 17.3 C 149.2 17.3 150.5 17.3 151.9 17.3 C 150.0 23.4 148.0 29.4 146.1 35.5 C 144.9 35.6 143.7 35.6 142.5 35.6 C 140.9 31.5 139.8 27.2 138.1 23.1 C 137.2 27.4 135.5 31.4 134.3 35.6 C 133.1 35.6 131.8 35.6 130.6 35.6 C 128.6 29.5 126.8 23.4 124.8 17.3 Z" />
<path fill="#ebebeb" stroke="#ebebeb" stroke-width="0.09375" opacity="1.00" d=" M 154.0 17.3 C 155.4 17.3 156.8 17.3 158.2 17.3 C 159.3 21.5 160.5 25.7 161.9 29.8 C 163.0 25.6 164.5 21.5 165.7 17.3 C 166.9 17.3 168.1 17.3 169.3 17.3 C 170.6 21.4 172.1 25.5 173.1 29.8 C 174.6 25.7 175.7 21.5 176.9 17.4 C 178.3 17.3 179.6 17.3 181.0 17.3 C 179.2 23.5 177.1 29.4 175.2 35.5 C 174.0 35.6 172.8 35.6 171.6 35.6 C 170.1 31.5 169.0 27.2 167.1 23.2 C 166.4 27.4 164.7 31.5 163.4 35.6 C 162.2 35.6 160.9 35.6 159.7 35.6 C 157.9 29.5 155.7 23.5 154.0 17.3 Z" />
<path fill="#00ebb4" stroke="#00ebb4" stroke-width="0.09375" opacity="1.00" d=" M 29.8 33.6 C 35.6 28.6 40.7 22.9 46.8 18.3 L 48.0 18.0 C 48.2 19.5 48.4 21.0 48.7 22.5 C 41.1 26.5 36.9 34.4 29.9 39.0 C 24.7 38.7 20.4 34.9 15.2 34.6 C 11.8 36.0 8.9 38.4 5.8 40.4 C 4.8 38.8 3.8 37.2 2.8 35.6 C 7.3 33.9 11.0 30.6 15.3 28.7 C 20.4 29.4 24.8 32.5 29.8 33.6 Z" />
<path fill="#00d8a5" stroke="#00d8a5" stroke-width="0.09375" opacity="1.00" d=" M 29.9 39.0 C 36.9 34.4 41.1 26.5 48.7 22.5 C 48.7 24.5 48.7 26.5 48.6 28.4 C 41.7 32.4 37.2 39.2 31.1 44.1 C 30.3 44.9 29.3 45.1 28.2 44.8 C 23.9 44.0 20.3 41.2 16.0 40.5 C 13.5 41.1 11.2 42.5 8.8 43.5 C 7.8 42.5 6.8 41.4 5.8 40.4 C 8.9 38.4 11.8 36.0 15.2 34.6 C 20.4 34.9 24.7 38.7 29.9 39.0 Z" />
<path fill="#00c798" stroke="#00c798" stroke-width="0.09375" opacity="1.00" d=" M 31.1 44.1 C 37.2 39.2 41.7 32.4 48.6 28.4 C 47.3 37.8 40.3 46.1 31.1 48.5 C 23.5 51.0 14.9 48.6 8.8 43.5 C 11.2 42.5 13.5 41.1 16.0 40.5 C 20.3 41.2 23.9 44.0 28.2 44.8 C 29.3 45.1 30.3 44.9 31.1 44.1 Z" />
</svg>
