<svg width="48" height="48" viewBox="0 0 48 48" fill="none" xmlns="http://www.w3.org/2000/svg">
<rect y="0.0556641" width="48" height="47.4667" rx="8" fill="#F9FAFA"/>
<path fill-rule="evenodd" clip-rule="evenodd" d="M12.4796 10.4983H20.1596C21.22 10.4983 22.0796 11.3484 22.0796 12.397V19.9916C22.0796 21.0402 21.22 21.8903 20.1596 21.8903H12.4796C11.4192 21.8903 10.5596 21.0402 10.5596 19.9916V12.397C10.5596 11.3484 11.4192 10.4983 12.4796 10.4983ZM27.8396 25.6876H35.5196C36.58 25.6876 37.4396 26.5377 37.4396 27.5863V35.1809C37.4396 36.2295 36.58 37.0796 35.5196 37.0796H27.8396C26.7792 37.0796 25.9196 36.2295 25.9196 35.1809V27.5863C25.9196 26.5377 26.7792 25.6876 27.8396 25.6876Z" fill="#00D09C"/>
<path fill-rule="evenodd" clip-rule="evenodd" d="M27.8396 10.4983H35.5196C36.58 10.4983 37.4396 11.3484 37.4396 12.397V19.9916C37.4396 21.0402 36.58 21.8903 35.5196 21.8903H27.8396C26.7792 21.8903 25.9196 21.0402 25.9196 19.9916V12.397C25.9196 11.3484 26.7792 10.4983 27.8396 10.4983ZM12.4796 25.6876H20.1596C21.22 25.6876 22.0796 26.5377 22.0796 27.5863V35.1809C22.0796 36.2295 21.22 37.0796 20.1596 37.0796H12.4796C11.4192 37.0796 10.5596 36.2295 10.5596 35.1809V27.5863C10.5596 26.5377 11.4192 25.6876 12.4796 25.6876Z" fill="#5856E9"/>
</svg>
