<svg width="48" height="48" viewBox="0 0 48 48" fill="none" xmlns="http://www.w3.org/2000/svg">
<rect y="0.522461" width="48" height="47.4667" rx="8" fill="#F9FAFA"/>
<path d="M14.7189 19.1461H17.844C18.3675 19.1461 18.792 19.5507 18.792 20.0498C18.792 20.5489 18.3675 20.9536 17.844 20.9536H12.7879C12.2643 20.9536 11.8398 20.5489 11.8398 20.0498V15.23C11.8398 14.7308 12.2643 14.3262 12.7879 14.3262C13.3114 14.3262 13.7359 14.7308 13.7359 15.23V17.2387C16.8176 13.0388 22.5446 11.1337 27.8449 12.8735C32.8313 14.5102 36.1617 18.983 36.1598 23.9854C36.1597 24.4845 35.7351 24.8889 35.2115 24.8888C34.6879 24.8886 34.2636 24.4838 34.2638 23.9847C34.2654 19.7525 31.447 15.9674 27.2276 14.5824C22.3916 12.9951 17.1349 14.9941 14.7189 19.1461Z" fill="#00D09C"/>
<path fill-rule="evenodd" clip-rule="evenodd" d="M33.2491 29.3518H30.1647C29.6419 29.3518 29.2181 28.9464 29.2181 28.4463C29.2181 27.9462 29.6419 27.5408 30.1647 27.5408H35.2132C35.736 27.5408 36.1598 27.9462 36.1598 28.4463V33.2756C36.1598 33.7757 35.736 34.1811 35.2132 34.1811C34.6904 34.1811 34.2666 33.7757 34.2666 33.2756V31.2136C31.1964 35.4595 25.4515 37.3859 20.1424 35.6372C15.1731 34.0005 11.85 29.5327 11.8398 24.5303C11.8388 24.0302 12.2618 23.624 12.7846 23.623C13.3074 23.6221 13.732 24.0267 13.7331 24.5268C13.7416 28.7592 16.5539 32.5399 20.7588 33.9249C25.5839 35.5142 30.8352 33.5155 33.2491 29.3518Z" fill="#5856E9"/>
</svg>
